<svg xmlns="http://www.w3.org/2000/svg" xmlns:xlink="http://www.w3.org/1999/xlink" width="2000" zoomAndPan="magnify" viewBox="0 0 1500 379.91998" height="496" preserveAspectRatio="xMidYMid meet" version="1.0"><defs><g/></defs><path fill="#010204" d="M 1192.167969 221.8125 C 1177.097656 221.324219 1166.082031 211.605469 1158.304688 193.292969 C 1193.625 184.546875 1224.574219 161.375 1242.558594 129.78125 L 1287.117188 148.25 C 1267.1875 187.460938 1223.601562 222.785156 1192.167969 221.8125 M 1019.285156 73.554688 C 1062.382812 75.5 1093.816406 105.476562 1112.289062 163.644531 C 1109.855469 164.128906 1107.425781 164.617188 1104.511719 165.101562 C 1100.136719 166.074219 1096.246094 167.046875 1091.871094 168.019531 C 1085.066406 169.476562 1078.746094 171.421875 1072.429688 173.851562 C 1068.539062 175.308594 1064.164062 176.765625 1060.277344 178.226562 C 1053.472656 180.65625 1047.152344 184.058594 1040.832031 186.976562 C 1037.429688 188.917969 1033.542969 190.378906 1030.140625 192.324219 C 1022.847656 196.210938 1015.558594 201.070312 1008.265625 205.933594 C 1006.320312 207.390625 1003.890625 208.363281 1001.945312 209.820312 C 993.195312 216.140625 984.933594 223.433594 976.832031 230.722656 C 974.402344 232.667969 972.457031 235.097656 970.511719 237.527344 C 965.167969 243.359375 959.820312 248.707031 954.472656 255.027344 C 952.042969 258.429688 949.613281 261.347656 947.179688 264.75 C 942.804688 270.582031 938.917969 275.929688 935.515625 281.761719 C 933.085938 285.652344 931.140625 289.054688 929.195312 292.941406 C 927.738281 295.859375 925.792969 298.773438 924.335938 301.691406 L 800.871094 251.300781 C 841.050781 156.839844 944.265625 70.640625 1018.796875 74.042969 M 1224.085938 83.277344 L 1217.28125 99.804688 C 1205.617188 129.292969 1178.558594 151.652344 1147.609375 158.457031 C 1119.09375 62.539062 1063.355469 39.367188 1020.742188 37.421875 C 916.558594 33.046875 798.4375 148.738281 762.144531 255.351562 L 756.796875 271.390625 L 944.265625 347.871094 L 951.070312 331.34375 C 979.101562 260.210938 1047.476562 208.847656 1122.496094 198.15625 C 1139.507812 246.601562 1171.914062 256.324219 1190.707031 256.808594 L 1194.113281 256.808594 C 1249.363281 256.808594 1309.3125 197.667969 1327.785156 143.066406 L 1333.132812 127.023438 L 1224.085938 83.441406 Z M 1224.085938 83.277344 " fill-opacity="1" fill-rule="nonzero"/><g fill="#000000" fill-opacity="1"><g transform="translate(96.629799, 245.573266)"><g><path d="M 91.78125 -89.703125 C 97.601562 -85.253906 101.929688 -79.617188 104.765625 -72.796875 C 107.609375 -65.972656 109.03125 -58.34375 109.03125 -49.90625 C 109.03125 -39.332031 106.878906 -30.210938 102.578125 -22.546875 C 98.285156 -14.878906 92.382812 -8.972656 84.875 -4.828125 C 77.363281 -0.691406 68.703125 1.375 58.890625 1.375 C 44.015625 1.375 32.28125 -2.722656 23.6875 -10.921875 C 15.101562 -19.128906 10.8125 -30.054688 10.8125 -43.703125 C 10.8125 -49.523438 11.578125 -54.738281 13.109375 -59.34375 C 14.640625 -63.945312 16.710938 -68.007812 19.328125 -71.53125 L 10.125 -71.53125 L 10.125 -99.140625 L 54.515625 -99.140625 C 63.710938 -99.140625 71.265625 -98.332031 77.171875 -96.71875 C 83.078125 -95.113281 87.945312 -92.773438 91.78125 -89.703125 Z M 59.578125 -25.984375 C 66.472656 -25.984375 71.609375 -28.128906 74.984375 -32.421875 C 78.359375 -36.722656 80.046875 -42.015625 80.046875 -48.296875 C 80.046875 -54.890625 78.316406 -60.253906 74.859375 -64.390625 C 71.410156 -68.535156 66.316406 -70.609375 59.578125 -70.609375 C 52.984375 -70.609375 47.921875 -68.460938 44.390625 -64.171875 C 40.867188 -59.878906 39.109375 -54.585938 39.109375 -48.296875 C 39.109375 -41.859375 40.90625 -36.53125 44.5 -32.3125 C 48.101562 -28.09375 53.128906 -25.984375 59.578125 -25.984375 Z M 24.15625 -146.0625 L 53.359375 -146.0625 L 53.359375 -117.078125 L 24.15625 -117.078125 Z M 64.171875 -146.0625 L 93.390625 -146.0625 L 93.390625 -117.078125 L 64.171875 -117.078125 Z M 64.171875 -146.0625 "/></g></g></g><g fill="#000000" fill-opacity="1"><g transform="translate(193.468678, 245.573266)"><g><path d="M 69 -83.953125 L 69 -16.5625 C 69 -2.757812 67.003906 8.773438 63.015625 18.046875 C 59.035156 27.328125 53.132812 34.84375 45.3125 40.59375 C 37.488281 46.34375 27.75 50.90625 16.09375 54.28125 L 6.671875 26.90625 C 14.796875 24.757812 21.3125 22.113281 26.21875 18.96875 C 31.125 15.832031 34.6875 11.347656 36.90625 5.515625 C 39.132812 -0.304688 40.25 -8.203125 40.25 -18.171875 L 40.25 -83.953125 Z M 69 -83.953125 "/></g></g></g><g fill="#000000" fill-opacity="1"><g transform="translate(274.206091, 245.573266)"><g><path d="M 127.890625 -28.75 L 127.890625 0 L 104.203125 0 C 100.054688 17.019531 90.695312 29.898438 76.125 38.640625 C 61.5625 47.378906 42.394531 52.59375 18.625 54.28125 L 14.265625 26.453125 C 30.972656 24.609375 44.082031 21.726562 53.59375 17.8125 C 63.101562 13.90625 69.773438 7.96875 73.609375 0 L 64.171875 0 C 52.367188 0 42.863281 -1.53125 35.65625 -4.59375 C 28.445312 -7.664062 22.769531 -11.960938 18.625 -17.484375 C 12.5 -25.453125 9.4375 -36.03125 9.4375 -49.21875 C 9.4375 -64.707031 13.726562 -77.28125 22.3125 -86.9375 C 30.894531 -96.601562 43.085938 -101.4375 58.890625 -101.4375 C 72.378906 -101.4375 83.113281 -98.0625 91.09375 -91.3125 C 96.601562 -86.5625 100.585938 -80.3125 103.046875 -72.5625 C 105.503906 -64.820312 106.734375 -54.816406 106.734375 -42.546875 L 106.734375 -28.75 Z M 42.78125 -36.34375 C 44.769531 -34.039062 47.53125 -32.195312 51.0625 -30.8125 C 54.59375 -29.4375 59.117188 -28.75 64.640625 -28.75 L 77.96875 -28.75 L 77.96875 -41.171875 C 77.96875 -48.992188 77.394531 -54.9375 76.25 -59 C 75.101562 -63.0625 73.378906 -66.085938 71.078125 -68.078125 C 69.390625 -69.765625 67.394531 -70.953125 65.09375 -71.640625 C 62.789062 -72.335938 60.488281 -72.6875 58.1875 -72.6875 C 52.0625 -72.6875 47.195312 -70.769531 43.59375 -66.9375 C 39.988281 -63.101562 38.1875 -57.734375 38.1875 -50.828125 C 38.1875 -44.691406 39.71875 -39.863281 42.78125 -36.34375 Z M 42.78125 -36.34375 "/></g></g></g><g fill="#000000" fill-opacity="1"><g transform="translate(397.497417, 245.573266)"><g><path d="M -4.59375 0 L -4.59375 -28.75 L 2.53125 -28.75 C 10.195312 -28.75 15.71875 -30.472656 19.09375 -33.921875 C 22.46875 -37.378906 24.15625 -43.015625 24.15625 -50.828125 L 24.15625 -83.953125 L 52.90625 -83.953125 L 52.90625 -48.765625 C 52.90625 -32.972656 48.722656 -20.894531 40.359375 -12.53125 C 32.003906 -4.175781 20.316406 0 5.296875 0 Z M 4.140625 -132.71875 L 33.359375 -132.71875 L 33.359375 -103.734375 L 4.140625 -103.734375 Z M 44.15625 -132.71875 L 73.375 -132.71875 L 73.375 -103.734375 L 44.15625 -103.734375 Z M 44.15625 -132.71875 "/></g></g></g><g fill="#000000" fill-opacity="1"><g transform="translate(469.264082, 245.573266)"><g><path d="M 70.84375 0 L 60.265625 0 C 51.679688 0 44.128906 -1.53125 37.609375 -4.59375 C 31.085938 -7.664062 25.910156 -12.5 22.078125 -19.09375 C 19.628906 -23.382812 17.789062 -28.289062 16.5625 -33.8125 C 15.332031 -39.332031 14.71875 -46.769531 14.71875 -56.125 L 14.71875 -163.765625 L 43.46875 -163.765625 L 43.46875 -57.734375 C 43.46875 -51.753906 43.847656 -47.191406 44.609375 -44.046875 C 45.378906 -40.898438 46.378906 -38.410156 47.609375 -36.578125 C 51.140625 -31.359375 57.351562 -28.75 66.25 -28.75 L 70.84375 -28.75 Z M 70.84375 0 "/></g></g></g><g fill="#000000" fill-opacity="1"><g transform="translate(535.510182, 245.573266)"><g><path d="M 57.5 -135.015625 C 73.144531 -135.015625 85.257812 -130.300781 93.84375 -120.875 C 102.4375 -111.445312 106.734375 -97.609375 106.734375 -79.359375 L 106.734375 -62.109375 C 106.734375 -42.472656 101.632812 -27.210938 91.4375 -16.328125 C 81.238281 -5.441406 67.320312 0 49.6875 0 L -4.59375 0 L -4.59375 -28.75 L 49 -28.75 C 58.65625 -28.75 65.59375 -30.585938 69.8125 -34.265625 C 74.03125 -37.953125 76.445312 -43.015625 77.0625 -49.453125 C 70.769531 -42.703125 61.875 -39.328125 50.375 -39.328125 C 37.488281 -39.328125 27.210938 -43.3125 19.546875 -51.28125 C 11.878906 -59.257812 8.046875 -70.457031 8.046875 -84.875 C 8.046875 -100.050781 12.453125 -112.203125 21.265625 -121.328125 C 30.085938 -130.453125 42.164062 -135.015625 57.5 -135.015625 Z M 57.5 -63.25 C 63.789062 -63.25 68.8125 -65.085938 72.5625 -68.765625 C 76.320312 -72.453125 78.203125 -77.972656 78.203125 -85.328125 C 78.203125 -92.535156 76.320312 -98.09375 72.5625 -102 C 68.8125 -105.914062 63.789062 -107.875 57.5 -107.875 C 51.0625 -107.875 45.960938 -105.914062 42.203125 -102 C 38.453125 -98.09375 36.578125 -92.535156 36.578125 -85.328125 C 36.578125 -78.734375 38.378906 -73.40625 41.984375 -69.34375 C 45.585938 -65.28125 50.757812 -63.25 57.5 -63.25 Z M 43.015625 -179.40625 L 72.21875 -179.40625 L 72.21875 -150.4375 L 43.015625 -150.4375 Z M 43.015625 -179.40625 "/></g></g></g></svg>